<?xml version="1.0" encoding="UTF-8"?>
<svg width="200px" height="39px" viewBox="0 0 200 39" version="1.1" xmlns="http://www.w3.org/2000/svg" xmlns:xlink="http://www.w3.org/1999/xlink">
    <!-- Generator: Sketch 52.1 (67048) - http://www.bohemiancoding.com/sketch -->
    <title>logo</title>
    <desc>Created with Sketch.</desc>
    <defs>
        <linearGradient x1="50%" y1="0%" x2="50%" y2="96.5751444%" id="linearGradient-1">
            <stop stop-color="#EA18B0" offset="0%"></stop>
            <stop stop-color="#346DF1" offset="100%"></stop>
        </linearGradient>
    </defs>
    <g id="01_contant-page" stroke="none" stroke-width="1" fill="none" fill-rule="evenodd">
        <g id="main-page/1360" transform="translate(-129.000000, -15.000000)">
            <g id="top" transform="translate(130.000000, 15.000000)">
                <g id="logo">
                    <path d="M197.024274,21.9917528 L184.266406,21.9917528 C184.400909,25.2360264 187.019868,27.860047 190.2112,27.860047 C191.588197,27.860047 192.897011,27.3429139 193.937882,26.4798198 C194.441272,26.0654777 195.280788,26.134626 195.717059,26.7215651 C196.119877,27.3078466 196.052652,28.0672729 195.515969,28.5160248 C194.072386,29.6896836 192.259117,30.4145906 190.278585,30.4145906 C185.612241,30.4145906 181.851467,26.5484202 181.851467,21.7518705 C181.851467,16.9531291 185.611708,13.0891505 190.278585,13.0891505 C194.542216,13.0891505 198.034516,16.1608272 198.268899,20.5135563 C198.336124,21.4450316 197.69839,21.9978896 197.027204,21.9978896 L197.024274,21.9917528 Z M190.205873,15.6029283 C187.621272,15.6029283 185.405292,17.3288971 184.601999,19.7112821 L195.351635,19.7112821 C195.049335,16.9837034 192.698851,15.6029283 190.214396,15.6029283 L190.205873,15.6029283 Z M175.567617,29.8928548 C174.895898,29.8928548 174.32539,29.3405448 174.32539,28.6156378 L174.32539,6.28214832 C174.32539,5.59176076 174.895898,5.00493134 175.567617,5.00493134 C176.272895,5.00493134 176.809312,5.59176076 176.809312,6.28214832 L176.809312,28.6156378 C176.809312,29.3410927 176.272363,29.8928548 175.567617,29.8928548 Z M166.874155,10.2496851 C165.933961,10.2496851 165.162097,9.45519144 165.162097,8.48864887 C165.162097,7.48703898 165.933961,6.69364122 166.874155,6.69364122 C167.814349,6.69364122 168.620305,7.48758691 168.620305,8.48864887 C168.620305,9.45519144 167.814881,10.2496851 166.874155,10.2496851 Z M161.770475,7.55662566 L159.251928,7.55662566 C157.573429,7.55662566 156.331734,8.90342933 156.331734,10.6293982 L156.331734,13.5635453 L160.125003,13.5635453 C160.830281,13.5635453 161.367231,14.1503748 161.367231,14.8402144 C161.367231,15.5656692 160.829749,16.1174314 160.125003,16.1174314 L156.331734,16.1174314 L156.331734,28.6101586 C156.331734,29.3356134 155.794253,29.8873756 155.089507,29.8873756 C154.418321,29.8873756 153.847812,29.3350655 153.847812,28.6101586 L153.847812,10.6272065 C153.847812,7.45142375 156.197497,5 159.254591,5 L161.773138,5 C162.444325,5 163.014833,5.58682942 163.014833,6.27721698 C163.014833,7.00267184 162.444325,7.55443396 161.773138,7.55443396 L161.770475,7.55662566 Z M140.383067,30.4051662 C135.716724,30.4051662 131.955949,26.5389959 131.955949,21.7424462 C131.955949,16.9437047 135.716191,13.0797261 140.383067,13.0797261 C145.049943,13.0797261 148.810185,16.9453485 148.810185,21.7424462 C148.810185,26.5400918 145.049411,30.4051662 140.383067,30.4051662 Z M140.416999,15.6330642 C137.126055,15.6330642 134.472206,18.3595471 134.472206,21.7424462 C134.472206,25.1253452 137.124457,27.8518281 140.416999,27.8518281 C143.706878,27.8518281 146.361793,25.1253452 146.361793,21.7424462 C146.361793,18.3595471 143.709542,15.6330642 140.416999,15.6330642 Z M129.102714,16.1158972 C125.577388,16.1158972 123.39763,18.5322536 123.39763,22.3622608 L123.39763,28.6086244 C123.39763,29.3340792 122.860148,29.8858414 122.155402,29.8858414 C121.484216,29.8858414 120.913708,29.3335313 120.913708,28.6086244 L120.913708,14.8337489 C120.913708,14.1439092 121.484216,13.5570798 122.155402,13.5570798 C122.860681,13.5570798 123.39763,14.1439092 123.39763,14.8337489 L123.39763,16.9739503 C124.538647,14.9367591 126.486153,13.5570798 129.102714,13.5570798 C129.773901,13.5570798 130.344942,14.1439092 130.344942,14.8337489 C130.344942,15.5592037 129.773901,16.1109658 129.102714,16.1109658 L129.102714,16.1158972 Z M107.715306,30.4058237 C105.130706,30.4058237 102.981844,29.1631261 101.605379,27.230041 L101.605379,31.4808558 C101.605379,32.2063106 101.067898,32.7586207 100.363152,32.7586207 C99.6919655,32.7586207 99.1214571,32.2057627 99.1214571,31.4808558 L99.1214571,14.8348447 C99.1214571,14.1450051 99.6919655,13.5581757 100.363152,13.5581757 C101.06843,13.5581757 101.605379,14.1450051 101.605379,14.8348447 L101.605379,16.2846586 C102.981844,14.3515734 105.130706,13.0743564 107.715306,13.0743564 C112.280972,13.0743564 115.870754,16.9399788 115.870754,21.7370765 C115.870754,26.5347221 112.278309,30.3997965 107.715306,30.3997965 L107.715306,30.4058237 Z M107.748599,15.5624913 C104.525839,15.5624913 101.606711,18.2550027 101.606711,21.7431037 C101.606711,25.1950415 104.459786,27.8853612 107.748599,27.8853612 C111.005452,27.8853612 113.389761,25.0887437 113.389761,21.7431037 C113.389761,18.3602047 111.005984,15.5624913 107.748599,15.5624913 Z M94.516639,16.1148013 L92.4348958,16.1148013 C91.024339,16.1148013 90.0170267,17.1843541 90.0170267,18.6686873 L90.0170267,24.9862814 C90.0170267,27.8853612 88.0364941,29.8874851 85.2164459,29.8874851 L83.0345574,29.8874851 C82.329279,29.8874851 81.7928625,29.3351751 81.7928625,28.6102682 C81.7928625,27.8859092 82.3298117,27.3335991 83.0345574,27.3335991 L85.1163006,27.3335991 C86.559884,27.3335991 87.533637,26.2629505 87.533637,24.7791651 L87.533637,18.4615711 C87.533637,15.5624913 89.5147023,13.5603674 92.3342178,13.5603674 L94.5171717,13.5603674 C95.2213847,13.5603674 95.7588665,14.1471968 95.7588665,14.8370364 C95.7588665,15.5624913 95.2213847,16.1142534 94.5171717,16.1142534 L94.516639,16.1148013 Z M77.1936376,29.8896768 C76.5219186,29.8896768 75.9514101,29.3373668 75.9514101,28.6124599 L75.9514101,27.2667521 C74.5408533,29.1998372 72.2247275,30.4074675 69.6390618,30.4074675 C65.4425488,30.4074675 62.3518952,26.8870389 62.3518952,22.5721167 L62.3518952,14.8408719 C62.3518952,14.1165129 62.889377,13.5642028 63.5935901,13.5642028 C64.2988685,13.5642028 64.8358176,14.1165129 64.8358176,14.8408719 L64.8358176,22.3365082 C64.8358176,25.6843399 67.2195947,27.9308391 70.1403209,27.9308391 C73.5985289,27.9308391 75.9466159,25.0312114 75.9466159,22.1337754 L75.9466159,14.8518304 C75.9466159,14.1619908 76.5171244,13.5751614 77.1888435,13.5751614 C77.8930565,13.5751614 78.4305383,14.1619908 78.4305383,14.8518304 L78.4305383,28.626706 C78.4305383,29.3521608 77.8930565,29.9039229 77.1888435,29.9039229 L77.1936376,29.8896768 Z M57.990249,16.1148013 C54.4659877,16.1148013 52.2851646,18.5311578 52.2851646,22.3611649 L52.2851646,28.6075285 C52.2851646,29.3329834 51.7482155,29.8847455 51.0434698,29.8847455 C50.3717507,29.8847455 49.8012422,29.3324355 49.8012422,28.6075285 L49.8012422,14.832653 C49.8012422,14.1428134 50.3717507,13.5559839 51.0434698,13.5559839 C51.7487482,13.5559839 52.2851646,14.1428134 52.2851646,14.832653 L52.2851646,16.9728544 C53.4261815,14.9356632 55.3742201,13.5559839 57.990249,13.5559839 C58.6619681,13.5559839 59.2324765,14.1428134 59.2324765,14.832653 C59.2324765,15.5581079 58.6619681,16.10987 57.990249,16.10987 L57.990249,16.1148013 Z M166.871598,13.5609153 C167.576877,13.5609153 168.113293,14.1477447 168.113293,14.8375843 L168.113293,28.6124599 C168.113293,29.3379147 167.576344,29.8896768 166.871598,29.8896768 C166.200412,29.8896768 165.629371,29.3373668 165.629371,28.6124599 L165.629371,14.8375843 C165.629371,14.1477447 166.200412,13.5609153 166.871598,13.5609153 Z" id="Shape" fill="#101235" fill-rule="nonzero"></path>
                    <path d="M15.9165406,8.75753846 C11.6495073,10.103904 8.63292732,13.9697674 8.31837037,18.4948861 C8.00381342,23.0200048 10.4556991,27.2776588 14.4941869,29.2190769" id="Shape" stroke="url(#linearGradient-1)" stroke-linecap="round" stroke-linejoin="round"></path>
                    <path d="M21.6750574,8.58215385 C26.2546011,9.71358964 29.5887959,13.7201671 29.922729,18.4930733 C30.2566622,23.2659794 27.5137621,27.7107765 23.1377207,29.488" id="Shape" stroke="url(#linearGradient-1)" stroke-linecap="round" stroke-linejoin="round"></path>
                    <path d="M15.9165406,8.75753846 L15.9165406,8.33661538 L14.6381498,8.33661538 L14.6381498,7.448 L18.8015575,4.37292308 L22.9649652,7.448 L22.9649652,8.33076923 L21.6865744,8.33076923 L21.6865744,8.58215385 L21.5656456,15.3753846 L23.2932006,15.3753846 L21.6117137,17.3572308 L23.1377207,29.488 L24.1569782,37.5556923 C33.0211424,34.9175157 38.6394518,26.0798578 37.3563339,16.7929711 C36.073216,7.50608439 28.2767401,0.578716591 19.03971,0.518183366 C9.80267988,0.45765014 1.9187645,7.2822593 0.517660511,16.5515554 C-0.883443475,25.8208515 4.62201709,34.7314071 13.4518954,37.4855385 L14.4999454,29.2307692 L15.9971598,17.3396923 L14.3156729,15.3578462 L16.0432279,15.3578462 L15.9165406,8.75753846 Z" id="Shape" stroke="url(#linearGradient-1)" stroke-linecap="round" stroke-linejoin="round"></path>
                </g>
            </g>
        </g>
    </g>
</svg>